<?xml version="1.0" encoding="UTF-8"?>
<svg width="20px" height="20px" viewBox="0 0 20 20" version="1.1" xmlns="http://www.w3.org/2000/svg" xmlns:xlink="http://www.w3.org/1999/xlink">
    <!-- Generator: Sketch 41.2 (35397) - http://www.bohemiancoding.com/sketch -->
    <title>add-circle</title>
    <desc>Created with Sketch.</desc>
    <defs></defs>
    <g id="Patterns---Progress-Navigation" stroke="none" stroke-width="1" fill="none" fill-rule="evenodd">
        <g id="PN3-curriculum1" transform="translate(-474.000000, -416.000000)" fill="#299DE1">
            <g id="curriculum-interactive" transform="translate(474.000000, 111.000000)">
                <g id="add-circle" transform="translate(0.000000, 305.000000)">
                    <path d="M10,0 C4.5,0 0,4.5 0,10 C0,15.5 4.5,20 10,20 C15.5,20 20,15.5 20,10 C20,4.5 15.5,0 10,0 L10,0 Z M15,11 L11,11 L11,15 L9,15 L9,11 L5,11 L5,9 L9,9 L9,5 L11,5 L11,9 L15,9 L15,11 L15,11 Z" id="Shape"></path>
                </g>
            </g>
        </g>
    </g>
</svg>