<?xml version="1.0" encoding="UTF-8"?>
<svg width="20px" height="20px" viewBox="0 0 20 20" version="1.1" xmlns="http://www.w3.org/2000/svg" xmlns:xlink="http://www.w3.org/1999/xlink">
    <!-- Generator: Sketch 41.2 (35397) - http://www.bohemiancoding.com/sketch -->
    <title>add-circle-outline</title>
    <desc>Created with Sketch.</desc>
    <defs></defs>
    <g id="Patterns---Progress-Navigation" stroke="none" stroke-width="1" fill="none" fill-rule="evenodd">
        <g id="PN3-curriculum1" transform="translate(-474.000000, -210.000000)">
            <g id="curriculum-interactive" transform="translate(474.000000, 111.000000)">
                <g id="add-circle-outline" transform="translate(0.000000, 99.000000)">
                    <path d="M10,0 C4.5,0 0,4.5 0,10 C0,15.5 4.5,20 10,20 C15.5,20 20,15.5 20,10 C20,4.5 15.5,0 10,0 L10,0 Z M2,10 C2,5.6 5.6,2 10,2 C14.4,2 18,5.6 18,10 C18,14.4 14.4,18 10,18 C5.6,18 2,14.4 2,10 Z" id="Shape" fill="#979797"></path>
                    <path d="M5.5,10 L14.5,10" id="Line" stroke="#979797" stroke-width="2" stroke-linecap="square"></path>
                </g>
            </g>
        </g>
    </g>
</svg>